Bond's mission takes him to the steamy island of Jamaica, where mysterious energy waves are interfering with U.S. missile launches. As he unravels the astonishing truth, 007 must fight deadly assassins, sexy femme fatales and even a poisonous tarantula. With the help of crack CIA agent Felix Leiter and the beautiful Honey Ryder, he searches for the headquarters of Dr. No, a fanatical scientist who is implementing an evil plan of world domination. Only James Bond, with his combination of wit, charm and skill, can confront the madman and save the human race from a horrible fate.


Format : AVI
Format/Info : Audio Video Interleave
File size : 565 MiB
Duration : 1h 49mn
Overall bit rate : 720 Kbps
Writing application : MEncoder SVN-r29352(20090610-gcc4.3.3)
Writing library : MPlayer

Video
Format : avc1
Codec ID : avc1
Duration : 1h 49mn
Bit rate : 579 Kbps
Width : 480 pixels
Height : 360 pixels
Display aspect ratio : 4:3
Frame rate : 25.000 fps
Bits/(Pixel*Frame) : 0.134
Stream size : 455 MiB (81%)

Audio
ID : 1
Format : MPEG Audio
Format version : Version 1
Format profile : Layer 3
Mode : Joint stereo
Format_Settings_ModeExtension : MS Stereo
Codec ID : 55
Codec ID/Hint : MP3
Duration : 1h 49mn
Bit rate mode : Constant
Bit rate : 128 Kbps
Channel(s) : 2 channels
Sampling rate : 44.1 KHz
Stream size : 101 MiB (18%)
Alignment : Aligned on interleaves
Interleave, duration : 26 ms (0.65 video frame)
Interleave, preload duration : 522 ms